<svg style="display:none" xmlns="http://www.w3.org/2000/svg">
    <symbol width="20" height="24" viewBox="0 0 20 18" fill="none"  id="burger-button">
      <rect width="20" height="4" fill="#81b3d2"/>
      <rect y="8" width="20" height="4" fill="#81b3d2"/>
      <rect y="16" width="20" height="4" fill="#81b3d2"/>
    </symbol>
    <symbol width="23" height="23" viewBox="0 0 23 23" fill="none" id="close-button">
      <rect x="2.09094" width="29.5699" height="4" transform="rotate(45 2.09094 0)" fill="#ffffff" />
      <rect y="20.9092" width="29.5699" height="4" transform="rotate(-45 0 20.9092)" fill="#ffffff" />
    </symbol>
    <symbol width="24" height="14" viewBox="0 0 24 14" fill="none" id="VK">
      <path fill-rule="evenodd" clip-rule="evenodd" d="M23.45 0.948C23.616 0.402 23.45 0 22.655 0H20.03C19.362 0 19.054 0.347 18.887 0.73C18.887 0.73 17.552 3.926 15.661 6.002C15.049 6.604 14.771 6.795 14.437 6.795C14.27 6.795 14.019 6.604 14.019 6.057V0.948C14.019 0.292 13.835 0 13.279 0H9.151C8.734 0 8.483 0.304 8.483 0.593C8.483 1.214 9.429 1.358 9.526 3.106V6.904C9.526 7.737 9.373 7.888 9.039 7.888C8.149 7.888 5.984 4.677 4.699 1.003C4.45 0.288 4.198 0 3.527 0H0.9C0.15 0 0 0.347 0 0.73C0 1.412 0.89 4.8 4.145 9.281C6.315 12.341 9.37 14 12.153 14C13.822 14 14.028 13.632 14.028 12.997V10.684C14.028 9.947 14.186 9.8 14.715 9.8C15.105 9.8 15.772 9.992 17.33 11.467C19.11 13.216 19.403 14 20.405 14H23.03C23.78 14 24.156 13.632 23.94 12.904C23.702 12.18 22.852 11.129 21.725 9.882C21.113 9.172 20.195 8.407 19.916 8.024C19.527 7.533 19.638 7.314 19.916 6.877C19.916 6.877 23.116 2.451 23.449 0.948H23.45Z" fill="white"/>
    </symbol>
    <symbol width="22" height="18" viewBox="0 0 22 18" fill="none" id="telegram">
      <path d="M21.4393 1.62225L18.2705 16.566C18.0313 17.6205 17.408 17.883 16.5223 17.3865L11.6938 13.8285L9.36426 16.0695C9.10626 16.3275 8.891 16.5428 8.39375 16.5428L8.74101 11.6258L17.6893 3.54C18.0785 3.1935 17.6045 3.00075 17.0848 3.348L6.02225 10.314L1.25976 8.823C0.224006 8.49975 0.205256 7.78725 1.47576 7.29L20.1035 0.113253C20.966 -0.209997 21.7205 0.305253 21.4393 1.623V1.62225Z" fill="white"/>
    </symbol>
    <symbol width="20" height="16" viewBox="0 0 20 16" fill="none" id="youtube">
      <path fill-rule="evenodd" clip-rule="evenodd" d="M3 0H17C18.65 0 20 1.35 20 3V13C20 14.65 18.65 16 17 16H3C1.35 16 0 14.65 0 13V3C0 1.35 1.35 0 3 0ZM6.027 4.002V11.998L15.014 8L6.027 4.002Z" fill="white" />
    </symbol>
    <symbol width="23" height="21" viewBox="0 0 23 21" fill="none" xmlns="http://www.w3.org/2000/svg" id="like" class="gallery__button">
      <path opacity="0.8" d="M12.9636 3.78L12.3364 6.825L11.7091 9.45H14.3227H20.8045V11.55C20.8045 11.55 20.8045 11.55 20.8045 11.655L17.7727 18.9H8.36364V8.4L12.9636 3.78ZM2.09091 10.5V18.9V10.5ZM13.8 0L6.9 6.93C6.48182 7.245 6.27273 7.77 6.27273 8.4V18.9C6.27273 20.055 7.21364 21 8.36364 21H17.7727C18.6091 21 19.3409 20.475 19.6545 19.74L22.7909 12.285C22.8955 12.075 22.8955 11.76 22.8955 11.55V9.45H23C23 8.295 22.0591 7.35 20.9091 7.35H14.3227L15.3682 2.52V2.205C15.3682 1.785 15.1591 1.365 14.95 1.05L13.8 0ZM4.18182 8.4H0V21H4.18182V8.4Z" fill="white" />
    </symbol>
  </svg>
